<?xml version="1.0" standalone="no"?>
<!DOCTYPE svg PUBLIC "-//W3C//DTD SVG 20010904//EN"
 "http://www.w3.org/TR/2001/REC-SVG-20010904/DTD/svg10.dtd">
<svg version="1.0" xmlns="http://www.w3.org/2000/svg"
 width="700.000000pt" height="700.000000pt" viewBox="0 0 700.000000 700.000000"
 preserveAspectRatio="xMidYMid meet">
<metadata>
Created by potrace 1.11, written by Peter Selinger 2001-2013
</metadata>
<g transform="translate(0.000000,700.000000) scale(0.100000,-0.100000)"
fill="#000000" stroke="none">
<path d="M2667 6604 c-1 -1 -69 -5 -152 -9 -82 -3 -177 -8 -210 -10 -33 -2
-131 -6 -218 -10 -228 -10 -238 -12 -255 -50 -16 -34 -19 -24 84 -285 18 -47
49 -128 69 -180 20 -52 45 -115 55 -140 10 -25 78 -198 150 -385 73 -187 152
-392 177 -455 24 -63 67 -173 95 -245 27 -71 58 -151 69 -176 10 -26 62 -159
115 -295 53 -137 98 -255 101 -261 4 -10 -130 -13 -649 -13 l-655 0 -169 211
c-93 116 -174 216 -179 223 -6 6 -46 56 -90 110 -44 55 -108 134 -143 177 -34
43 -72 81 -85 85 -23 8 -348 5 -544 -5 -27 -1 -63 -38 -63 -64 0 -11 28 -72
62 -136 34 -64 77 -145 96 -181 50 -95 125 -237 207 -390 71 -132 107 -200
215 -405 29 -55 61 -114 71 -131 l19 -31 -56 -104 c-31 -57 -81 -151 -111
-209 -31 -58 -70 -132 -88 -165 -18 -33 -56 -105 -85 -160 -29 -55 -61 -113
-70 -130 -10 -16 -46 -84 -81 -150 -34 -66 -83 -158 -109 -205 -61 -114 -73
-145 -67 -172 11 -42 40 -50 201 -53 342 -7 382 -8 403 -1 12 4 46 37 75 74
29 37 55 69 58 72 4 4 253 314 297 370 6 8 35 44 65 80 29 36 79 98 111 138
l58 72 656 0 c520 0 654 -3 650 -12 -48 -120 -911 -2342 -918 -2363 -12 -38 5
-82 35 -91 23 -8 27 -9 241 -19 83 -4 175 -8 205 -10 30 -1 127 -6 215 -10 88
-4 168 -9 178 -11 36 -7 76 18 111 69 88 129 208 303 617 895 85 122 244 353
354 513 110 159 225 326 255 369 30 44 147 212 259 375 l203 295 842 1 c462 0
852 2 866 5 228 37 375 100 486 209 87 85 135 188 140 296 9 225 -140 393
-443 502 -70 25 -196 55 -265 62 -18 2 -391 4 -829 4 l-796 1 -46 68 c-26 37
-65 94 -88 127 -23 33 -182 263 -353 510 -464 672 -585 848 -596 865 -6 8 -43
62 -83 120 -40 58 -108 157 -152 220 -43 63 -99 144 -124 180 -25 36 -66 95
-91 131 -208 304 -198 293 -268 294 -18 1 -34 0 -35 -1z m33 -143 c3 0 14 -14
23 -30 10 -17 82 -123 162 -238 79 -114 203 -293 275 -398 72 -104 184 -266
248 -360 65 -93 152 -219 193 -280 70 -101 301 -437 514 -745 48 -69 131 -190
186 -270 55 -80 111 -154 125 -165 25 -20 42 -20 852 -21 455 -1 841 -4 857
-8 17 -3 46 -9 65 -12 129 -19 309 -100 394 -176 78 -69 109 -137 104 -225 -7
-125 -75 -217 -218 -296 -55 -30 -187 -72 -255 -82 -27 -3 -437 -6 -911 -6
-718 -1 -865 -3 -882 -14 -11 -8 -118 -157 -239 -332 -264 -382 -891 -1290
-982 -1423 -37 -53 -138 -200 -226 -328 -88 -128 -190 -275 -226 -325 l-65
-92 -45 1 c-24 1 -100 4 -169 8 -69 4 -174 9 -235 12 -200 10 -247 13 -251 16
-3 4 36 107 166 438 53 137 556 1427 677 1740 41 107 77 207 80 221 2 16 -4
35 -16 50 l-19 24 -752 0 -752 0 -26 -31 c-44 -51 -61 -71 -212 -259 -79 -99
-149 -185 -155 -191 -15 -18 -36 -43 -88 -111 -26 -34 -53 -68 -60 -75 -7 -7
-35 -42 -64 -78 l-51 -66 -79 2 c-43 2 -127 3 -186 3 l-109 1 58 108 c31 59
75 141 97 182 22 41 54 102 72 135 18 33 56 105 85 160 29 55 66 125 83 155
16 30 54 102 85 160 30 58 75 141 100 185 72 130 80 100 -133 500 -103 193
-210 393 -237 445 -28 52 -69 129 -91 170 -22 41 -57 108 -79 148 l-39 72 58
1 c32 0 116 1 186 3 l128 2 47 -56 c26 -31 170 -210 320 -397 150 -187 283
-344 295 -350 14 -6 290 -10 759 -9 656 1 739 3 753 17 38 38 49 6 -256 789
-23 58 -176 452 -341 875 -165 424 -301 776 -302 784 -1 17 -17 16 469 37 77
3 141 7 143 9 2 2 81 -1 92 -4z"/>
</g>
</svg>
